<mxfile host="app.diagrams.net" modified="2021-12-10T06:42:24.797Z" agent="5.0 (Macintosh; Intel Mac OS X 10_15_7) AppleWebKit/537.36 (KHTML, like Gecko) Chrome/96.0.4664.93 Safari/537.36" etag="2e_pn5_a6xgfvmelugk4" version="15.9.4" type="github">
  <diagram id="-8n35G8wWFrllf_d6P62" name="Page-1">
    <mxGraphModel dx="1298" dy="841" grid="1" gridSize="10" guides="1" tooltips="1" connect="1" arrows="1" fold="1" page="1" pageScale="1" pageWidth="827" pageHeight="1169" math="0" shadow="0">
      <root>
        <mxCell id="0" />
        <mxCell id="1" parent="0" />
        <mxCell id="N_alkpdlt-aL1FBQk0Id-3" value="" style="edgeStyle=orthogonalEdgeStyle;rounded=0;orthogonalLoop=1;jettySize=auto;html=1;" edge="1" parent="1" source="N_alkpdlt-aL1FBQk0Id-1" target="N_alkpdlt-aL1FBQk0Id-2">
          <mxGeometry relative="1" as="geometry" />
        </mxCell>
        <mxCell id="N_alkpdlt-aL1FBQk0Id-4" style="edgeStyle=orthogonalEdgeStyle;rounded=0;orthogonalLoop=1;jettySize=auto;html=1;entryX=0;entryY=0.5;entryDx=0;entryDy=0;" edge="1" parent="1" source="N_alkpdlt-aL1FBQk0Id-1" target="N_alkpdlt-aL1FBQk0Id-5">
          <mxGeometry relative="1" as="geometry">
            <mxPoint x="210" y="220" as="targetPoint" />
          </mxGeometry>
        </mxCell>
        <mxCell id="N_alkpdlt-aL1FBQk0Id-11" style="edgeStyle=orthogonalEdgeStyle;rounded=0;orthogonalLoop=1;jettySize=auto;html=1;entryX=0;entryY=0.5;entryDx=0;entryDy=0;" edge="1" parent="1" source="N_alkpdlt-aL1FBQk0Id-1" target="N_alkpdlt-aL1FBQk0Id-10">
          <mxGeometry relative="1" as="geometry" />
        </mxCell>
        <mxCell id="N_alkpdlt-aL1FBQk0Id-1" value="Knowledge System" style="whiteSpace=wrap;html=1;" vertex="1" parent="1">
          <mxGeometry x="50" y="330" width="120" height="60" as="geometry" />
        </mxCell>
        <mxCell id="N_alkpdlt-aL1FBQk0Id-7" value="" style="edgeStyle=orthogonalEdgeStyle;rounded=0;orthogonalLoop=1;jettySize=auto;html=1;" edge="1" parent="1" source="N_alkpdlt-aL1FBQk0Id-2" target="N_alkpdlt-aL1FBQk0Id-6">
          <mxGeometry relative="1" as="geometry" />
        </mxCell>
        <mxCell id="N_alkpdlt-aL1FBQk0Id-9" style="edgeStyle=orthogonalEdgeStyle;rounded=0;orthogonalLoop=1;jettySize=auto;html=1;entryX=0;entryY=0.5;entryDx=0;entryDy=0;" edge="1" parent="1" source="N_alkpdlt-aL1FBQk0Id-2" target="N_alkpdlt-aL1FBQk0Id-8">
          <mxGeometry relative="1" as="geometry" />
        </mxCell>
        <mxCell id="N_alkpdlt-aL1FBQk0Id-19" style="edgeStyle=orthogonalEdgeStyle;rounded=0;orthogonalLoop=1;jettySize=auto;html=1;entryX=0;entryY=0.5;entryDx=0;entryDy=0;" edge="1" parent="1" source="N_alkpdlt-aL1FBQk0Id-2" target="N_alkpdlt-aL1FBQk0Id-18">
          <mxGeometry relative="1" as="geometry" />
        </mxCell>
        <mxCell id="N_alkpdlt-aL1FBQk0Id-2" value="MultiMedia" style="whiteSpace=wrap;html=1;" vertex="1" parent="1">
          <mxGeometry x="250" y="330" width="120" height="60" as="geometry" />
        </mxCell>
        <mxCell id="N_alkpdlt-aL1FBQk0Id-5" value="Program" style="whiteSpace=wrap;html=1;" vertex="1" parent="1">
          <mxGeometry x="250" y="190" width="120" height="60" as="geometry" />
        </mxCell>
        <mxCell id="N_alkpdlt-aL1FBQk0Id-13" value="" style="edgeStyle=orthogonalEdgeStyle;rounded=0;orthogonalLoop=1;jettySize=auto;html=1;entryX=0;entryY=0.5;entryDx=0;entryDy=0;" edge="1" parent="1" source="N_alkpdlt-aL1FBQk0Id-6" target="N_alkpdlt-aL1FBQk0Id-12">
          <mxGeometry relative="1" as="geometry" />
        </mxCell>
        <mxCell id="N_alkpdlt-aL1FBQk0Id-15" style="edgeStyle=orthogonalEdgeStyle;rounded=0;orthogonalLoop=1;jettySize=auto;html=1;entryX=0;entryY=0.5;entryDx=0;entryDy=0;" edge="1" parent="1" source="N_alkpdlt-aL1FBQk0Id-6" target="N_alkpdlt-aL1FBQk0Id-14">
          <mxGeometry relative="1" as="geometry" />
        </mxCell>
        <mxCell id="N_alkpdlt-aL1FBQk0Id-17" style="edgeStyle=orthogonalEdgeStyle;rounded=0;orthogonalLoop=1;jettySize=auto;html=1;entryX=0;entryY=0.5;entryDx=0;entryDy=0;" edge="1" parent="1" source="N_alkpdlt-aL1FBQk0Id-6" target="N_alkpdlt-aL1FBQk0Id-16">
          <mxGeometry relative="1" as="geometry" />
        </mxCell>
        <mxCell id="N_alkpdlt-aL1FBQk0Id-21" style="edgeStyle=orthogonalEdgeStyle;rounded=0;orthogonalLoop=1;jettySize=auto;html=1;entryX=0;entryY=0.5;entryDx=0;entryDy=0;" edge="1" parent="1" source="N_alkpdlt-aL1FBQk0Id-6" target="N_alkpdlt-aL1FBQk0Id-20">
          <mxGeometry relative="1" as="geometry" />
        </mxCell>
        <mxCell id="N_alkpdlt-aL1FBQk0Id-6" value="Player/Editor" style="whiteSpace=wrap;html=1;" vertex="1" parent="1">
          <mxGeometry x="450" y="270" width="120" height="60" as="geometry" />
        </mxCell>
        <mxCell id="N_alkpdlt-aL1FBQk0Id-23" style="edgeStyle=orthogonalEdgeStyle;rounded=0;orthogonalLoop=1;jettySize=auto;html=1;entryX=0;entryY=0.5;entryDx=0;entryDy=0;" edge="1" parent="1" source="N_alkpdlt-aL1FBQk0Id-8" target="N_alkpdlt-aL1FBQk0Id-22">
          <mxGeometry relative="1" as="geometry" />
        </mxCell>
        <mxCell id="N_alkpdlt-aL1FBQk0Id-31" style="edgeStyle=orthogonalEdgeStyle;rounded=0;orthogonalLoop=1;jettySize=auto;html=1;entryX=0;entryY=0.5;entryDx=0;entryDy=0;" edge="1" parent="1" source="N_alkpdlt-aL1FBQk0Id-8" target="N_alkpdlt-aL1FBQk0Id-30">
          <mxGeometry relative="1" as="geometry" />
        </mxCell>
        <mxCell id="N_alkpdlt-aL1FBQk0Id-8" value="Render" style="whiteSpace=wrap;html=1;" vertex="1" parent="1">
          <mxGeometry x="450" y="580" width="120" height="60" as="geometry" />
        </mxCell>
        <mxCell id="N_alkpdlt-aL1FBQk0Id-10" value="OS" style="whiteSpace=wrap;html=1;" vertex="1" parent="1">
          <mxGeometry x="250" y="50" width="120" height="60" as="geometry" />
        </mxCell>
        <mxCell id="N_alkpdlt-aL1FBQk0Id-12" value="Color" style="whiteSpace=wrap;html=1;" vertex="1" parent="1">
          <mxGeometry x="670" y="100" width="120" height="60" as="geometry" />
        </mxCell>
        <mxCell id="N_alkpdlt-aL1FBQk0Id-14" value="PCM" style="whiteSpace=wrap;html=1;" vertex="1" parent="1">
          <mxGeometry x="670" y="180" width="120" height="60" as="geometry" />
        </mxCell>
        <mxCell id="N_alkpdlt-aL1FBQk0Id-16" value="Codec" style="whiteSpace=wrap;html=1;" vertex="1" parent="1">
          <mxGeometry x="670" y="270" width="120" height="60" as="geometry" />
        </mxCell>
        <mxCell id="N_alkpdlt-aL1FBQk0Id-18" value="AI" style="whiteSpace=wrap;html=1;" vertex="1" parent="1">
          <mxGeometry x="450" y="800" width="120" height="60" as="geometry" />
        </mxCell>
        <mxCell id="N_alkpdlt-aL1FBQk0Id-20" value="MediaFile" style="whiteSpace=wrap;html=1;" vertex="1" parent="1">
          <mxGeometry x="670" y="360" width="120" height="60" as="geometry" />
        </mxCell>
        <mxCell id="N_alkpdlt-aL1FBQk0Id-27" style="edgeStyle=orthogonalEdgeStyle;rounded=0;orthogonalLoop=1;jettySize=auto;html=1;entryX=0;entryY=0.5;entryDx=0;entryDy=0;" edge="1" parent="1" source="N_alkpdlt-aL1FBQk0Id-22" target="N_alkpdlt-aL1FBQk0Id-24">
          <mxGeometry relative="1" as="geometry" />
        </mxCell>
        <mxCell id="N_alkpdlt-aL1FBQk0Id-28" style="edgeStyle=orthogonalEdgeStyle;rounded=0;orthogonalLoop=1;jettySize=auto;html=1;entryX=0;entryY=0.5;entryDx=0;entryDy=0;" edge="1" parent="1" source="N_alkpdlt-aL1FBQk0Id-22" target="N_alkpdlt-aL1FBQk0Id-25">
          <mxGeometry relative="1" as="geometry" />
        </mxCell>
        <mxCell id="N_alkpdlt-aL1FBQk0Id-29" style="edgeStyle=orthogonalEdgeStyle;rounded=0;orthogonalLoop=1;jettySize=auto;html=1;entryX=0;entryY=0.5;entryDx=0;entryDy=0;" edge="1" parent="1" source="N_alkpdlt-aL1FBQk0Id-22" target="N_alkpdlt-aL1FBQk0Id-26">
          <mxGeometry relative="1" as="geometry" />
        </mxCell>
        <mxCell id="N_alkpdlt-aL1FBQk0Id-22" value="Input" style="whiteSpace=wrap;html=1;" vertex="1" parent="1">
          <mxGeometry x="670" y="480" width="120" height="60" as="geometry" />
        </mxCell>
        <mxCell id="N_alkpdlt-aL1FBQk0Id-33" value="" style="edgeStyle=orthogonalEdgeStyle;rounded=0;orthogonalLoop=1;jettySize=auto;html=1;entryX=0;entryY=0.5;entryDx=0;entryDy=0;" edge="1" parent="1" source="N_alkpdlt-aL1FBQk0Id-24" target="N_alkpdlt-aL1FBQk0Id-32">
          <mxGeometry relative="1" as="geometry">
            <mxPoint x="1030" y="350" as="targetPoint" />
          </mxGeometry>
        </mxCell>
        <mxCell id="N_alkpdlt-aL1FBQk0Id-36" style="edgeStyle=orthogonalEdgeStyle;rounded=0;orthogonalLoop=1;jettySize=auto;html=1;entryX=0;entryY=0.5;entryDx=0;entryDy=0;" edge="1" parent="1" source="N_alkpdlt-aL1FBQk0Id-24" target="N_alkpdlt-aL1FBQk0Id-34">
          <mxGeometry relative="1" as="geometry" />
        </mxCell>
        <mxCell id="N_alkpdlt-aL1FBQk0Id-37" style="edgeStyle=orthogonalEdgeStyle;rounded=0;orthogonalLoop=1;jettySize=auto;html=1;entryX=0;entryY=0.5;entryDx=0;entryDy=0;" edge="1" parent="1" source="N_alkpdlt-aL1FBQk0Id-24" target="N_alkpdlt-aL1FBQk0Id-35">
          <mxGeometry relative="1" as="geometry" />
        </mxCell>
        <mxCell id="N_alkpdlt-aL1FBQk0Id-39" style="edgeStyle=orthogonalEdgeStyle;rounded=0;orthogonalLoop=1;jettySize=auto;html=1;entryX=0;entryY=0.5;entryDx=0;entryDy=0;" edge="1" parent="1" source="N_alkpdlt-aL1FBQk0Id-24" target="N_alkpdlt-aL1FBQk0Id-38">
          <mxGeometry relative="1" as="geometry" />
        </mxCell>
        <mxCell id="N_alkpdlt-aL1FBQk0Id-24" value="Image" style="whiteSpace=wrap;html=1;" vertex="1" parent="1">
          <mxGeometry x="840" y="430" width="120" height="60" as="geometry" />
        </mxCell>
        <mxCell id="N_alkpdlt-aL1FBQk0Id-25" value="Video" style="whiteSpace=wrap;html=1;" vertex="1" parent="1">
          <mxGeometry x="840" y="500" width="120" height="60" as="geometry" />
        </mxCell>
        <mxCell id="N_alkpdlt-aL1FBQk0Id-26" value="Camera" style="whiteSpace=wrap;html=1;" vertex="1" parent="1">
          <mxGeometry x="840" y="570" width="120" height="60" as="geometry" />
        </mxCell>
        <mxCell id="N_alkpdlt-aL1FBQk0Id-30" value="BackEnd" style="whiteSpace=wrap;html=1;" vertex="1" parent="1">
          <mxGeometry x="670" y="660" width="120" height="60" as="geometry" />
        </mxCell>
        <mxCell id="N_alkpdlt-aL1FBQk0Id-32" value="JPG" style="whiteSpace=wrap;html=1;" vertex="1" parent="1">
          <mxGeometry x="1040" y="300" width="120" height="60" as="geometry" />
        </mxCell>
        <mxCell id="N_alkpdlt-aL1FBQk0Id-34" value="PNG" style="whiteSpace=wrap;html=1;" vertex="1" parent="1">
          <mxGeometry x="1040" y="360" width="120" height="60" as="geometry" />
        </mxCell>
        <mxCell id="N_alkpdlt-aL1FBQk0Id-35" value="KTX" style="whiteSpace=wrap;html=1;" vertex="1" parent="1">
          <mxGeometry x="1040" y="440" width="120" height="60" as="geometry" />
        </mxCell>
        <mxCell id="N_alkpdlt-aL1FBQk0Id-41" value="" style="edgeStyle=orthogonalEdgeStyle;rounded=0;orthogonalLoop=1;jettySize=auto;html=1;" edge="1" parent="1" source="N_alkpdlt-aL1FBQk0Id-38" target="N_alkpdlt-aL1FBQk0Id-40">
          <mxGeometry relative="1" as="geometry" />
        </mxCell>
        <mxCell id="N_alkpdlt-aL1FBQk0Id-43" style="edgeStyle=orthogonalEdgeStyle;rounded=0;orthogonalLoop=1;jettySize=auto;html=1;entryX=0;entryY=0.5;entryDx=0;entryDy=0;" edge="1" parent="1" source="N_alkpdlt-aL1FBQk0Id-38" target="N_alkpdlt-aL1FBQk0Id-42">
          <mxGeometry relative="1" as="geometry" />
        </mxCell>
        <mxCell id="N_alkpdlt-aL1FBQk0Id-38" value="ETC&lt;br&gt;（android）" style="whiteSpace=wrap;html=1;" vertex="1" parent="1">
          <mxGeometry x="1040" y="500" width="120" height="60" as="geometry" />
        </mxCell>
        <mxCell id="N_alkpdlt-aL1FBQk0Id-40" value="ETC1（no alpha）&lt;br&gt;gles 2.0" style="whiteSpace=wrap;html=1;" vertex="1" parent="1">
          <mxGeometry x="1220" y="470" width="120" height="60" as="geometry" />
        </mxCell>
        <mxCell id="N_alkpdlt-aL1FBQk0Id-42" value="ETC2（alpha）&lt;br&gt;gles 3.0" style="whiteSpace=wrap;html=1;" vertex="1" parent="1">
          <mxGeometry x="1220" y="530" width="120" height="60" as="geometry" />
        </mxCell>
        <mxCell id="N_alkpdlt-aL1FBQk0Id-44" value="PVR&lt;br&gt;（IOS）" style="whiteSpace=wrap;html=1;" vertex="1" parent="1">
          <mxGeometry x="1040" y="560" width="120" height="60" as="geometry" />
        </mxCell>
        <mxCell id="N_alkpdlt-aL1FBQk0Id-45" value="&lt;span style=&quot;color: rgba(0 , 0 , 0 , 0.9) ; font-family: , &amp;#34;blinkmacsystemfont&amp;#34; , &amp;#34;helvetica neue&amp;#34; , &amp;#34;pingfang sc&amp;#34; , &amp;#34;hiragino sans gb&amp;#34; , &amp;#34;microsoft yahei ui&amp;#34; , &amp;#34;microsoft yahei&amp;#34; , &amp;#34;arial&amp;#34; , sans-serif ; font-size: 16px ; background-color: rgb(255 , 255 , 255)&quot;&gt;PKM&lt;/span&gt;" style="rounded=0;whiteSpace=wrap;html=1;" vertex="1" parent="1">
          <mxGeometry x="1040" y="620" width="120" height="60" as="geometry" />
        </mxCell>
        <mxCell id="N_alkpdlt-aL1FBQk0Id-46" value="&lt;span style=&quot;color: rgba(0 , 0 , 0 , 0.9) ; font-family: , &amp;#34;blinkmacsystemfont&amp;#34; , &amp;#34;helvetica neue&amp;#34; , &amp;#34;pingfang sc&amp;#34; , &amp;#34;hiragino sans gb&amp;#34; , &amp;#34;microsoft yahei ui&amp;#34; , &amp;#34;microsoft yahei&amp;#34; , &amp;#34;arial&amp;#34; , sans-serif ; font-size: 16px ; background-color: rgb(255 , 255 , 255)&quot;&gt;ASTC&lt;/span&gt;" style="rounded=0;whiteSpace=wrap;html=1;" vertex="1" parent="1">
          <mxGeometry x="1040" y="680" width="120" height="60" as="geometry" />
        </mxCell>
        <mxCell id="N_alkpdlt-aL1FBQk0Id-47" value="BMP" style="whiteSpace=wrap;html=1;" vertex="1" parent="1">
          <mxGeometry x="1040" y="240" width="120" height="60" as="geometry" />
        </mxCell>
        <mxCell id="N_alkpdlt-aL1FBQk0Id-48" value="&lt;span style=&quot;color: rgba(0 , 0 , 0 , 0.9) ; font-family: , &amp;#34;blinkmacsystemfont&amp;#34; , &amp;#34;helvetica neue&amp;#34; , &amp;#34;pingfang sc&amp;#34; , &amp;#34;hiragino sans gb&amp;#34; , &amp;#34;microsoft yahei ui&amp;#34; , &amp;#34;microsoft yahei&amp;#34; , &amp;#34;arial&amp;#34; , sans-serif ; font-size: 16px ; background-color: rgb(255 , 255 , 255)&quot;&gt;DTX1 ～ 3&lt;br&gt;（s3tc）&lt;br&gt;&lt;/span&gt;" style="rounded=0;whiteSpace=wrap;html=1;" vertex="1" parent="1">
          <mxGeometry x="1040" y="730" width="120" height="60" as="geometry" />
        </mxCell>
      </root>
    </mxGraphModel>
  </diagram>
</mxfile>
